<svg width="104" height="15" viewBox="0 0 104 15" fill="none" xmlns="http://www.w3.org/2000/svg">
<path d="M103 6.36401C103.552 6.36401 104 6.81173 104 7.36401C104 7.9163 103.552 8.36401 103 8.36401L103 7.36401L103 6.36401ZM0.292893 8.07112C-0.0976311 7.6806 -0.0976311 7.04743 0.292893 6.65691L6.65685 0.292946C7.04738 -0.0975784 7.68054 -0.0975784 8.07107 0.292946C8.46159 0.68347 8.46159 1.31664 8.07107 1.70716L2.41421 7.36401L8.07107 13.0209C8.46159 13.4114 8.46159 14.0446 8.07107 14.4351C7.68054 14.8256 7.04738 14.8256 6.65685 14.4351L0.292893 8.07112ZM103 7.36401L103 8.36401L1 8.36401L1 7.36401L1 6.36401L103 6.36401L103 7.36401Z" fill="#2F5A4A"/>
</svg>
