<svg width="104" height="15" viewBox="0 0 104 15" fill="none" xmlns="http://www.w3.org/2000/svg">
<path d="M1 6.36401C0.447715 6.36401 1.69351e-10 6.81173 0 7.36401C-1.69351e-10 7.9163 0.447715 8.36401 1 8.36401L1 7.36401L1 6.36401ZM103.707 8.07112C104.098 7.6806 104.098 7.04743 103.707 6.65691L97.3431 0.292946C96.9526 -0.0975784 96.3195 -0.0975784 95.9289 0.292946C95.5384 0.68347 95.5384 1.31664 95.9289 1.70716L101.586 7.36401L95.9289 13.0209C95.5384 13.4114 95.5384 14.0446 95.9289 14.4351C96.3195 14.8256 96.9526 14.8256 97.3431 14.4351L103.707 8.07112ZM1 7.36401L1 8.36401L103 8.36401L103 7.36401L103 6.36401L1 6.36401L1 7.36401Z" fill="#2F5A4A"/>
</svg>
