<svg width="311" height="77" viewBox="0 0 311 77" fill="none" xmlns="http://www.w3.org/2000/svg">
<circle cx="38.5" cy="38.5" r="38.5" fill="#5E6063"/>
<path d="M103.848 32.048H97.032V37.64H103.128V39.44H97.032V45.2H103.848V47H94.848V30.248H103.848V32.048ZM111.809 47.216C108.737 47.216 106.577 45.536 106.433 43.136H108.689C108.809 44.408 109.937 45.368 111.785 45.368C113.513 45.368 114.473 44.504 114.473 43.424C114.473 40.496 106.697 42.2 106.697 37.304C106.697 35.288 108.593 33.632 111.521 33.632C114.425 33.632 116.345 35.192 116.489 37.76H114.305C114.209 36.44 113.201 35.48 111.449 35.48C109.841 35.48 108.881 36.248 108.881 37.304C108.881 40.424 116.513 38.72 116.609 43.424C116.609 45.584 114.713 47.216 111.809 47.216ZM120.172 30.536H122.356V33.848H125.788V35.648H122.356V43.4C122.356 44.696 122.836 45.152 124.18 45.152H125.788V47H123.82C121.492 47 120.172 46.04 120.172 43.4V35.648H118.468V33.848H120.172V30.536ZM128.434 29.24H130.618V35.744C131.482 34.352 133.114 33.608 134.962 33.608C137.89 33.608 140.218 35.48 140.218 39.248V47H138.058V39.56C138.058 36.872 136.594 35.504 134.386 35.504C132.154 35.504 130.618 36.896 130.618 39.728V47H128.434V29.24ZM149.378 35.48C147.242 35.48 145.465 36.896 145.226 39.464H153.53C153.554 36.896 151.634 35.48 149.378 35.48ZM155.522 42.944C154.85 45.344 152.738 47.216 149.474 47.216C145.73 47.216 142.97 44.576 142.97 40.4C142.97 36.248 145.634 33.632 149.474 33.632C153.29 33.632 155.786 36.32 155.786 39.92C155.786 40.4 155.762 40.784 155.714 41.24H145.202C145.37 43.904 147.242 45.368 149.474 45.368C151.442 45.368 152.69 44.36 153.17 42.944H155.522ZM160.852 39.848V47H158.668V33.848H160.852V35.984C161.596 34.52 163.012 33.608 165.1 33.608V35.864H164.524C162.436 35.864 160.852 36.8 160.852 39.848ZM184.724 30.272H186.908V47H184.724V39.416H176.204V47H174.02V30.272H176.204V37.616H184.724V30.272ZM196.373 47.216C192.653 47.216 189.821 44.576 189.821 40.4C189.821 36.248 192.749 33.632 196.469 33.632C200.213 33.632 203.117 36.248 203.117 40.4C203.117 44.576 200.117 47.216 196.373 47.216ZM196.373 45.296C198.653 45.296 200.885 43.736 200.885 40.4C200.885 37.088 198.701 35.528 196.445 35.528C194.141 35.528 192.053 37.088 192.053 40.4C192.053 43.736 194.093 45.296 196.373 45.296ZM205.989 29.24H208.173V35.744C209.037 34.352 210.669 33.608 212.517 33.608C215.445 33.608 217.773 35.48 217.773 39.248V47H215.613V39.56C215.613 36.872 214.149 35.504 211.941 35.504C209.709 35.504 208.173 36.896 208.173 39.728V47H205.989V29.24ZM240.324 39.56C240.324 36.872 238.884 35.504 236.724 35.504C234.516 35.504 233.004 36.92 233.004 39.752V47H230.844V39.56C230.844 36.872 229.404 35.504 227.244 35.504C225.036 35.504 223.524 36.92 223.524 39.752V47H221.34V33.848H223.524V35.744C224.388 34.352 225.948 33.608 227.676 33.608C229.836 33.608 231.636 34.568 232.5 36.536C233.268 34.64 235.14 33.608 237.156 33.608C240.156 33.608 242.484 35.48 242.484 39.248V47H240.324V39.56ZM251.659 35.48C249.523 35.48 247.747 36.896 247.507 39.464H255.811C255.835 36.896 253.915 35.48 251.659 35.48ZM257.803 42.944C257.131 45.344 255.019 47.216 251.755 47.216C248.011 47.216 245.251 44.576 245.251 40.4C245.251 36.248 247.915 33.632 251.755 33.632C255.571 33.632 258.067 36.32 258.067 39.92C258.067 40.4 258.043 40.784 257.995 41.24H247.483C247.651 43.904 249.523 45.368 251.755 45.368C253.723 45.368 254.971 44.36 255.451 42.944H257.803ZM260.95 33.848H263.134V47H260.95V33.848ZM262.078 31.712C261.238 31.712 260.59 31.064 260.59 30.224C260.59 29.384 261.238 28.736 262.078 28.736C262.87 28.736 263.518 29.384 263.518 30.224C263.518 31.064 262.87 31.712 262.078 31.712ZM271.512 47.216C268.44 47.216 266.28 45.536 266.136 43.136H268.392C268.512 44.408 269.64 45.368 271.488 45.368C273.216 45.368 274.176 44.504 274.176 43.424C274.176 40.496 266.4 42.2 266.4 37.304C266.4 35.288 268.296 33.632 271.224 33.632C274.128 33.632 276.048 35.192 276.192 37.76H274.008C273.912 36.44 272.904 35.48 271.152 35.48C269.544 35.48 268.584 36.248 268.584 37.304C268.584 40.424 276.216 38.72 276.312 43.424C276.312 45.584 274.416 47.216 271.512 47.216ZM279.875 30.536H282.059V33.848H285.491V35.648H282.059V43.4C282.059 44.696 282.539 45.152 283.883 45.152H285.491V47H283.523C281.195 47 279.875 46.04 279.875 43.4V35.648H278.171V33.848H279.875V30.536ZM293.729 35.48C291.593 35.48 289.817 36.896 289.577 39.464H297.881C297.905 36.896 295.985 35.48 293.729 35.48ZM299.873 42.944C299.201 45.344 297.089 47.216 293.825 47.216C290.081 47.216 287.321 44.576 287.321 40.4C287.321 36.248 289.985 33.632 293.825 33.632C297.641 33.632 300.137 36.32 300.137 39.92C300.137 40.4 300.113 40.784 300.065 41.24H289.553C289.721 43.904 291.593 45.368 293.825 45.368C295.793 45.368 297.041 44.36 297.521 42.944H299.873ZM305.204 39.848V47H303.02V33.848H305.204V35.984C305.948 34.52 307.364 33.608 309.452 33.608V35.864H308.876C306.788 35.864 305.204 36.8 305.204 39.848Z" fill="black"/>
</svg>
